<svg xmlns="http://www.w3.org/2000/svg" viewBox="0 0 64 64">
  <defs>
    <linearGradient id="grad" x1="8%" y1="8%" x2="92%" y2="92%">
      <stop offset="0%" stop-color="#ffdd33"/>
      <stop offset="45%" stop-color="#ff8b00"/>
      <stop offset="100%" stop-color="#c738ff"/>
    </linearGradient>
    <linearGradient id="textGrad" x1="0%" y1="0%" x2="100%" y2="100%">
      <stop offset="0%" stop-color="#ffe259"/>
      <stop offset="35%" stop-color="#ff9f3b"/>
      <stop offset="100%" stop-color="#d236ff"/>
    </linearGradient>
    <filter id="shadow" x="-20%" y="-20%" width="140%" height="140%">
      <feDropShadow dx="0" dy="8" stdDeviation="8" flood-color="#000" flood-opacity="0.35"/>
    </filter>
  </defs>
  <g filter="url(#shadow)">
    <path d="M12 16h40c2.2 0 4 1.8 4 4v24c0 2.2-1.8 4-4 4H12c-2.2 0-4-1.8-4-4V20c0-2.2 1.8-4 4-4z" fill="#07090f"/>
    <path d="M12 18c5.5 0 5.5 5 0 5v16c5.5 0 5.5 5 0 5h40c-5.5 0-5.5-5 0-5V23c-5.5 0-5.5-5 0-5H12z" fill="none" stroke="url(#grad)" stroke-width="4" stroke-linecap="round" stroke-linejoin="round"/>
  </g>
  <path d="M22 42c0-10 8-18 18-18 5.5 0 10 2.4 13 6.2" fill="none" stroke="url(#textGrad)" stroke-width="4" stroke-linecap="round" stroke-linejoin="round" opacity="0.25"/>
  <text x="32" y="39" text-anchor="middle" font-family="Inter,Segoe UI,Arial,sans-serif" font-size="26" font-weight="800" fill="url(#textGrad)">cv</text>
</svg>